<svg width="16" height="16" viewBox="0 0 16 16" fill="none" xmlns="http://www.w3.org/2000/svg">
<g clip-path="url(#clip0_792_8774)">
<path fill-rule="evenodd" clip-rule="evenodd" d="M4 1.39683V14.6032C4 15.3746 4.61561 16 5.375 16H14.625C15.3844 16 16 15.3746 16 14.6032V3.67563C16 3.30251 15.8531 2.9449 15.5919 2.68251L13.3239 0.403706C13.0665 0.145065 12.7191 0 12.357 0H5.375C4.61561 0 4 0.62538 4 1.39683ZM4.875 14.6032V1.39683C4.875 1.1163 5.09886 0.888889 5.375 0.888889H12.1875V3.93651C12.1875 4.46249 12.6072 4.88889 13.125 4.88889H15.125V14.6032C15.125 14.8837 14.9011 15.1111 14.625 15.1111H5.375C5.09886 15.1111 4.875 14.8837 4.875 14.6032ZM15.125 4V3.67563C15.125 3.53995 15.0716 3.40991 14.9766 3.3145L13.0625 1.39127V3.93651C13.0625 3.97157 13.0905 4 13.125 4H15.125Z" fill="#9D9C9B"/>
<path fill-rule="evenodd" clip-rule="evenodd" d="M12.5 7H10V6H12.5C13.3284 6 14 6.67157 14 7.5C14 8.32843 13.3284 9 12.5 9H10V8H12.5C12.7761 8 13 7.77614 13 7.5C13 7.22386 12.7761 7 12.5 7Z" fill="#4EA7AF"/>
<path fill-rule="evenodd" clip-rule="evenodd" d="M12.5 11H10V10H12.5C13.3284 10 14 10.6716 14 11.5C14 12.3284 13.3284 13 12.5 13H10V12H12.5C12.7761 12 13 11.7761 13 11.5C13 11.2239 12.7761 11 12.5 11Z" fill="#3D9298"/>
<path d="M0 4.625C0 4.21079 0.335786 3.875 0.75 3.875H8.25C8.66421 3.875 9 4.21079 9 4.625V12.125C9 12.5392 8.66421 12.875 8.25 12.875H0.75C0.335786 12.875 0 12.5392 0 12.125V4.625Z" fill="#3D9298"/>
<path d="M3.25 10.7607V5.75H6V6.75H4.25V7.75H6V8.75H4.25L4.26172 10.7607H3.25Z" fill="white"/>
</g>
<defs>
<clipPath id="clip0_792_8774">
<rect width="16" height="16" fill="white"/>
</clipPath>
</defs>
</svg>
