<svg width="16" height="16" viewBox="0 0 16 16" fill="none" xmlns="http://www.w3.org/2000/svg">
<g clip-path="url(#clip0_792_8772)">
<path d="M14 1.75C14 1.33579 14.3358 1 14.75 1H15.25C15.6642 1 16 1.33579 16 1.75V4.25C16 4.66421 15.6642 5 15.25 5H14.75C14.3358 5 14 4.66421 14 4.25V1.75Z" fill="#AE4BD5"/>
<path d="M14 6.75C14 6.33579 14.3358 6 14.75 6H15.25C15.6642 6 16 6.33579 16 6.75V9.25C16 9.66421 15.6642 10 15.25 10H14.75C14.3358 10 14 9.66421 14 9.25V6.75Z" fill="#9332BF"/>
<path d="M14 11.75C14 11.3358 14.3358 11 14.75 11H15.25C15.6642 11 16 11.3358 16 11.75V14.25C16 14.6642 15.6642 15 15.25 15H14.75C14.3358 15 14 14.6642 14 14.25V11.75Z" fill="#7719AA"/>
<path fill-rule="evenodd" clip-rule="evenodd" d="M3.75 14.6032V1.39683C3.75 0.62538 4.36561 0 5.125 0H13.375C14.1344 0 14.75 0.62538 14.75 1.39683V14.6032C14.75 15.3746 14.1344 16 13.375 16H5.125C4.36561 16 3.75 15.3746 3.75 14.6032ZM4.625 1.39683V14.6032C4.625 14.8837 4.84886 15.1111 5.125 15.1111H13.375C13.6511 15.1111 13.875 14.8837 13.875 14.6032V1.39683C13.875 1.1163 13.6511 0.888889 13.375 0.888889H5.125C4.84886 0.888889 4.625 1.1163 4.625 1.39683Z" fill="#9D9C9B"/>
<path d="M0 4.625C0 4.21079 0.335786 3.875 0.75 3.875H8.25C8.66421 3.875 9 4.21079 9 4.625V12.125C9 12.5392 8.66421 12.875 8.25 12.875H0.75C0.335786 12.875 0 12.5392 0 12.125V4.625Z" fill="#7719AA"/>
<path d="M2 10.75V6H2.875L6.125 9.25V6H7V10.75H6.125L2.875 7.5V10.75H2Z" fill="white"/>
</g>
<defs>
<clipPath id="clip0_792_8772">
<rect width="16" height="16" fill="white"/>
</clipPath>
</defs>
</svg>
