<svg width="16" height="16" viewBox="0 0 16 16" fill="none" xmlns="http://www.w3.org/2000/svg">
<g clip-path="url(#clip0_3671_51343)">
<path fill-rule="evenodd" clip-rule="evenodd" d="M4 1.39683V14.6032C4 15.3746 4.61561 16 5.375 16H14.625C15.3844 16 16 15.3746 16 14.6032V3.67563C16 3.30251 15.8531 2.9449 15.5919 2.68251L13.3239 0.403706C13.0665 0.145065 12.7191 0 12.357 0H5.375C4.61561 0 4 0.62538 4 1.39683ZM4.875 14.6032V1.39683C4.875 1.1163 5.09886 0.888889 5.375 0.888889H12.1875V3.93651C12.1875 4.46249 12.6072 4.88889 13.125 4.88889H15.125V14.6032C15.125 14.8837 14.9011 15.1111 14.625 15.1111H5.375C5.09886 15.1111 4.875 14.8837 4.875 14.6032ZM15.125 4V3.67563C15.125 3.53995 15.0716 3.40991 14.9766 3.3145L13.0625 1.39127V3.93651C13.0625 3.97157 13.0905 4 13.125 4H15.125Z" fill="#9D9C9B"/>
<path fill-rule="evenodd" clip-rule="evenodd" d="M10.25 6.5625C10.25 6.32088 10.4459 6.125 10.6875 6.125H13.5625C13.8041 6.125 14 6.32088 14 6.5625C14 6.80412 13.8041 7 13.5625 7H10.6875C10.4459 7 10.25 6.80412 10.25 6.5625Z" fill="#E6B6B6"/>
<path fill-rule="evenodd" clip-rule="evenodd" d="M10.25 8.5625C10.25 8.32088 10.4459 8.125 10.6875 8.125H13.5625C13.8041 8.125 14 8.32088 14 8.5625C14 8.80412 13.8041 9 13.5625 9H10.6875C10.4459 9 10.25 8.80412 10.25 8.5625Z" fill="#C36767"/>
<path fill-rule="evenodd" clip-rule="evenodd" d="M10.25 10.5625C10.25 10.3209 10.4459 10.125 10.6875 10.125H13.5625C13.8041 10.125 14 10.3209 14 10.5625C14 10.8041 13.8041 11 13.5625 11H10.6875C10.4459 11 10.25 10.8041 10.25 10.5625Z" fill="#A24A4A"/>
<path d="M0 4.66667C0 4.29848 0.447715 4 1 4H11C11.5523 4 12 4.29848 12 4.66667V11.3333C12 11.7015 11.5523 12 11 12H1C0.447715 12 0 11.7015 0 11.3333V4.66667Z" fill="#E33333"/>
<path d="M9.19545 6V10H8.36258V6H9.19545ZM10.8057 7.70879V8.35165H8.9678V7.70879H10.8057ZM11 6V6.6456H8.9678V6H11Z" fill="white"/>
<path d="M5.90561 10H5.02554L5.03109 9.35714H5.90561C6.12401 9.35714 6.30816 9.30861 6.45808 9.21154C6.608 9.11264 6.7209 8.96886 6.79678 8.78022C6.87451 8.59158 6.91338 8.36355 6.91338 8.09615V7.9011C6.91338 7.69597 6.89117 7.51557 6.84675 7.35989C6.80418 7.20421 6.74033 7.07326 6.65519 6.96703C6.57005 6.86081 6.46548 6.78114 6.34148 6.72802C6.21747 6.67308 6.07496 6.6456 5.91394 6.6456H5.00888V6H5.91394C6.18416 6 6.43124 6.04579 6.65519 6.13736C6.88099 6.22711 7.07625 6.35623 7.24098 6.52473C7.4057 6.69322 7.53248 6.89469 7.62132 7.12912C7.71201 7.36172 7.75736 7.62088 7.75736 7.90659V8.09615C7.75736 8.38004 7.71201 8.63919 7.62132 8.87363C7.53248 9.10806 7.4057 9.30952 7.24098 9.47802C7.0781 9.64469 6.88284 9.77381 6.65519 9.86538C6.42939 9.95513 6.17953 10 5.90561 10ZM5.4975 6V10H4.66463V6H5.4975Z" fill="white"/>
<path d="M2.57413 8.57418H1.54414V7.93132H2.57413C2.7333 7.93132 2.86285 7.90568 2.9628 7.8544C3.06274 7.80128 3.13585 7.72802 3.18212 7.63462C3.22839 7.54121 3.25153 7.4359 3.25153 7.31868C3.25153 7.19963 3.22839 7.08883 3.18212 6.98626C3.13585 6.8837 3.06274 6.80128 2.9628 6.73901C2.86285 6.67674 2.7333 6.6456 2.57413 6.6456H1.83287V10H1V6H2.57413C2.89062 6 3.16176 6.05678 3.38756 6.17033C3.61521 6.28205 3.78919 6.43681 3.90949 6.63462C4.0298 6.83242 4.08995 7.05861 4.08995 7.31319C4.08995 7.57143 4.0298 7.79487 3.90949 7.98352C3.78919 8.17216 3.61521 8.31777 3.38756 8.42033C3.16176 8.52289 2.89062 8.57418 2.57413 8.57418Z" fill="white"/>
</g>
<defs>
<clipPath id="clip0_3671_51343">
<rect width="16" height="16" fill="white"/>
</clipPath>
</defs>
</svg>
