<svg width="1280" height="484" viewBox="0 0 1280 484" fill="none" xmlns="http://www.w3.org/2000/svg">
<path d="M715.625 121.375L718.75 122.625L722.5 128.25L728.125 138.25L738.75 155.75L749.375 173.875L759.375 190.125L769.375 207L775 215.75L778.125 218.875L777.5 212V122.625L779.375 122H823.75L824.375 123.25V318.25L823.75 318.875H784.375L780.625 314.5L771.25 300.125L762.5 286.375L753.125 272L744.375 258.25L737.5 247.625L727.5 232.625V231.375H726.25L725.625 308.25L725 319.5H710L675.625 318.875V122.625L677.5 122L715.625 121.375Z" fill="#0E80BB"/>
<path d="M399.375 122H445.625L446.25 215.125L446.875 217L449.375 213.25L456.25 198.875L463.125 185.125L469.375 173.25L484.375 143.875L489.375 133.875L495.625 122H550.625L549.375 125.125L521.25 181.375L514.375 195.75L504.375 216.375L503.125 218.25V222L511.875 237L539.375 285.125L548.75 301.375L557.5 316.375L558.75 318.875H500L495.625 312.625L488.125 298.25L480 283.875L472.5 269.5L464.375 255.125L454.375 236.375L447.5 224.5L446.875 223.875L446.25 247.625L445.625 318.875H401.875L395.625 318.25V122.625L399.375 122Z" fill="#0E80BB"/>
<path d="M240 122H354.375L355 122.625V137L354.375 167.625L289.375 168.25V195.125H344.375V240.75L295 241.375L288.75 242L288.125 258.25V272H351.875L358.75 272.625L359.375 273.25V318.25L358.75 318.875H248.75L238.75 318.25V122.625L240 122Z" fill="#0E80BB"/>
<path d="M70 122H205L207.5 122.625V128.25L204.375 136.375L199.375 146.375L191.875 160.75L181.25 182L175 193.875L164.375 215.125L158.125 227L143.125 257L136.875 268.875L134.375 273.875H197.5V288.875L196.875 310.125L196.25 318.25L195 318.875H71.25L63.75 318.25L60.625 315.125L61.25 310.75L93.75 245.75L100 233.875L121.875 190.125L126.875 180.75L133.75 166.375L132.5 165.75L115.625 166.375L80 167H66.25V122.625L70 122Z" fill="#0E80BB"/>
<path d="M580 120.125H634.375L638.75 121.375L641.875 125.125L643.75 128.875L643.125 133.25L640 137L634.375 140.125V288.25L633.75 300.125L631.25 306.375L626.875 312L620 316.375L613.75 318.875L605.625 319.5L598.125 317.625L591.875 313.875L586.875 308.875L583.125 300.75L581.875 293.25V148.25L581.25 140.125L575 137.625L571.875 134.5L570.625 131.375L571.25 126.375L575 121.375L580 120.125Z" fill="#0E80BB"/>
<path fill-rule="evenodd" clip-rule="evenodd" d="M1155 118.25H1142.5L1138.12 118.875L1126.25 121.375L1116.25 125.125L1106.25 130.125L1097.5 135.75L1089.38 142.625L1081.88 150.75L1075.62 159.5L1070 170.125L1066.25 179.5L1063.12 192.625L1061.88 207V237L1063.75 252L1066.88 262.625L1070.62 272L1076.25 282L1081.88 290.125L1087.5 296.375L1096.25 303.875L1103.12 308.875L1116.25 315.75L1127.5 319.5L1142.5 322.625H1156.25L1171.25 319.5L1182.5 315.75L1195.62 308.875L1205 302.625L1214.38 293.25L1220 286.375L1225 278.875L1229.38 270.125L1232.5 262L1235 252.625L1236.88 239.5V200.75L1235 187L1231.88 176.375L1224.38 160.75L1216.88 150.125L1210.62 143.875L1203.12 137L1193.75 130.75L1179.38 123.875L1170 120.75L1155 118.25ZM1153.12 163.875H1143.75L1137.5 166.375L1131.25 170.75L1125.62 177L1121.25 183.875L1117.5 192.625L1115 202L1113.12 213.875V228.875L1115.62 243.25L1118.12 251.375L1121.25 258.875L1126.25 267.625L1132.5 273.875L1138.75 277.625L1146.25 280.125H1151.88L1155 279.5L1159.38 277.625L1166.25 273.25L1170 268.875L1175 262L1180 251.375L1183.12 239.5L1185 226.375V217.625L1183.12 203.25L1179.38 190.125L1174.38 180.125L1170 173.875L1165.62 170.125L1159.38 165.75L1153.12 163.875Z" fill="#0E80BB"/>
<path fill-rule="evenodd" clip-rule="evenodd" d="M939.375 120.75H896.875L870.625 122L868.75 122.625V318.875L886.875 320.125L908.75 320.75H926.25L939.375 320.125L951.25 318.875L967.5 315.125L976.875 312L990 305.75L1001.25 298.25L1010 289.5L1017.5 278.875L1023.12 267L1025.62 257.625L1027.5 245.75V194.5L1026.25 187L1022.5 175.125L1017.5 165.125L1012.5 157L1005.62 148.25L999.375 142.625L989.375 135.125L977.5 128.875L967.5 125.125L953.125 122L939.375 120.75ZM936.875 163.875H923.125L918.75 164.5V275.75L920 277.625H937.5L943.125 277L948.75 275.75L955 272.625L961.875 267.625L966.875 261.375L971.25 253.25L973.75 245.125L975 233.875V207.625L973.75 195.125L971.25 187.625L966.25 178.875L961.25 173.25L953.75 168.25L946.25 165.125L936.875 163.875Z" fill="#0E80BB"/>
<path d="M545.625 363.25H563.75L571.25 385.125L575.625 398.25L576.875 399.5L580 392L590.625 367L592.5 363.25H606.875L611.25 386.375L618.75 431.375V434.5L618.125 435.125H604.375L602.5 434.5L601.25 429.5L596.875 402.625L595.625 400.125L584.375 430.125L581.875 434.5L580.625 435.125H570.625L568.125 432.625L560 408.875L557.5 401.375L556.25 399.5L555.625 400.75L553.125 418.875L550 433.875L548.75 435.125H533.125L532.5 434.5L533.125 427.625L541.875 382.625L545.625 363.25Z" fill="#434548"/>
<path d="M388.75 363.25H403.75L405 363.875L405.625 388.875H430.625V363.25H444.375L446.25 363.875V434.5H431.25L430.625 433.875V405.75H405.625V434.5L389.375 435.125L388.75 434.5V363.25Z" fill="#434548"/>
<path d="M471.875 363.25H511.875V378.875H492.5V388.25L511.25 388.875L511.875 389.5V405.125H492.5V420.125L511.875 420.75V434.5L510.625 435.125H472.5L471.875 434.5V363.25Z" fill="#444447"/>
<path d="M340 362.625H351.875L361.25 363.875L364.375 365.125V383.875L358.125 382L352.5 380.75L345 380.125L339.375 381.375L334.375 384.5L330.625 390.75L329.375 395.125V403.25L331.875 410.125L336.25 415.125L341.25 417.625L343.75 418.25L353.75 417.625L364.375 416.375L365 417V428.25L363.75 433.875L360 435.125L349.375 436.375H342.5L331.875 434.5L324.375 431.375L319.375 427.625L314.375 421.375L311.25 414.5L308.75 405.125V393.25L311.25 383.875L314.375 377.625L320 371.375L328.75 365.75L336.25 363.25L340 362.625Z" fill="#434548"/>
<path d="M715.625 362.625H730.625L738.125 363.875L741.25 365.125V383.25L729.375 380.75L720.625 380.125L715 382L711.875 384.5L708.75 388.875L706.25 396.375V403.25L708.75 409.5L714.375 415.75L718.75 417.625H731.25L741.25 416.375L741.875 417L741.25 433.25L740 434.5L733.75 435.75L727.5 436.375H720L711.25 435.125L703.75 432.625L697.5 428.875L693.125 423.875L688.75 415.125L686.25 405.125V393.25L688.75 383.25L692.5 376.375L696.875 371.375L703.75 367L710.625 363.875L715.625 362.625Z" fill="#434548"/>
<path d="M937.5 361.375H948.125L954.375 363.875L959.375 367.625L963.125 372.625L962.5 375.75L955.625 383.25L953.125 382.625L949.375 379.5L946.25 378.25L941.25 378.875L939.375 381.375L940 385.75L943.125 389.5L953.125 396.375L958.75 402L961.875 408.875L963.125 415.125V419.5L960.625 425.75L956.25 430.75L948.75 434.5L944.375 435.75H933.125L927.5 433.25L923.125 428.875L920.625 423.875L919.375 418.875V414.5L920 413.875L931.25 413.25L934.375 415.75L936.875 420.125L940 420.75L944.375 418.875L945.625 415.75L943.125 411.375L934.375 405.125L927.5 400.125L922.5 395.125L920 390.125L919.375 388.25V378.875L921.875 372.625L925.625 367.625L930.625 363.875L937.5 361.375Z" fill="#434548"/>
<path d="M858.125 363.25H875.625L876.25 405.75V419.5H897.5V435.125H857.5V363.875L858.125 363.25Z" fill="#444447"/>
<path d="M588.125 43.25L595.625 44.5L601.25 47.625L605.625 52L610 60.75V69.5L607.5 75.125L603.125 80.75L598.125 84.5L591.875 87H585L576.25 82.625L571.875 78.25L568.125 70.75L567.5 68.25V62.625L568.75 57L572.5 50.75L579.375 45.75L583.75 43.875L588.125 43.25Z" fill="#0E80BB"/>
<path d="M644.375 363.25H660V435.125H644.375V363.25Z" fill="#444446"/>
<path d="M238.75 122.625H266.875V123.25L243.125 123.875L241.875 126.375L241.25 141.375L242.5 153.25L243.125 199.5L243.75 264.5L244.375 276.375V293.875H245.625L245 301.375L244.375 307L243.125 312.625L241.25 316.375L245.625 317L258.75 317.625V318.25H238.75V122.625Z" fill="#0B77BA"/>
<path d="M896.875 120.75H939.375L953.125 122L957.5 123.25V123.875L943.75 123.25H920L908.75 122.625L893.75 123.25H880.625L871.875 125.125L870.625 126.375L871.875 147L872.5 158.875L873.125 180.75L873.75 184.5L873.125 187.625L872.5 262V277.625L871.25 317L884.375 318.25L902.5 318.875V319.5H875L868.75 318.875V122.625L870.625 122L896.875 120.75Z" fill="#0B78BA"/>
<path d="M395.625 122.625H445V145.75H444.375L443.75 126.375L442.5 123.875H406.25L399.375 124.5V125.75L398.125 126.375V137L399.375 162V297.625L398.75 303.25V311.375L398.125 315.75L398.75 316.375L422.5 317.625V318.25H395.625V122.625Z" fill="#0B77BA"/>
<path d="M675.625 122.625H701.875V123.25L676.875 123.875L678.125 148.25L679.375 158.875L680 171.375L679.375 247V292.625L678.75 293.25L678.125 307.625V316.375L679.375 317L693.125 317.625V318.25H675.625V122.625Z" fill="#0B76BA"/>
<path d="M619.375 80.125L625 80.75L630 84.5L633.75 90.75L634.375 95.125L630.625 101.375L626.875 104.5L622.5 106.375L616.875 105.75L613.125 103.25L610 99.5L608.125 95.125V90.75L611.25 84.5L616.875 80.75L619.375 80.125Z" fill="#0E80BB"/>
<path d="M133.75 166.375H135L134.375 170.75L132.5 175.75L130 183.25L122.5 197L117.5 207L110.625 221.375L103.125 235.125L97.5 245.75L92.5 255.75L86.875 267.625L81.25 278.25L76.25 288.875L70 298.875H68.75L68.125 300.75H66.875L68.125 297L93.75 245.75L100 233.875L121.875 190.125L126.875 180.75L133.75 166.375Z" fill="#0B77BA"/>
<path d="M583.125 156.375H583.75L584.375 163.25L585 183.875V227L585.625 249.5V280.125L585 283.25V302.625H583.75L582.5 298.25L581.875 293.25V273.875L582.5 193.25L583.125 156.375Z" fill="#0B76BA"/>
<path d="M779.375 122H823.75V183.875H823.125L822.5 127.625L820.625 123.875H780L779.375 125.75L780 143.875L780.625 165.75V190.75L780 199.5L779.375 202.625H778.125V122.625L779.375 122Z" fill="#0B76BA"/>
<path d="M335 122H354.375L355 122.625V137L354.375 167.625H290.625V167L307.5 166.375H326.25L340 165.75L347.5 165.125L348.125 163.875H349.375L350.625 158.875L351.875 155.75V128.25L350 124.5L349.375 123.875L344.375 123.25H335.625L335 122Z" fill="#0B77BA"/>
<path d="M496.25 122.625H504.375V123.25H496.875L495.625 126.375L489.375 139.5L486.25 147.625L478.125 163.875L473.75 171.375L466.875 185.75L461.25 194.5L460.625 192.625L462.5 186.375L470 172L484.375 143.875L489.375 133.875L495 123.25L496.25 122.625Z" fill="#0B77BA"/>
<path fill-rule="evenodd" clip-rule="evenodd" d="M807.5 363.25H788.75L786.25 368.875L779.375 387.625L769.375 413.875L761.875 433.875L762.5 435.125H781.25L782.5 433.875L785.625 425.75L788.125 420.75H809.375L810.625 422.625L813.125 433.25L815 435.125H835.625V433.875L833.125 427.625L821.25 397L810 368.25L807.5 363.25ZM799.375 387H798.125L797.5 387.625L790.625 403.25L791.25 405.75H806.875V403.875L804.375 397L799.375 387Z" fill="#444547"/>
<path d="M66.25 122.625H146.25V123.25L77.5 123.875L70 125.75L69.375 127L68.125 165.75L70 166.375H66.25V122.625Z" fill="#0B77BA"/>
<path d="M313.75 272H351.875L358.75 272.625L359.375 273.25V318.25H350.625V317.625L356.875 317L357.5 315.125V279.5L356.25 275.75L349.375 273.875L303.125 273.25V272.625L313.75 272Z" fill="#0C7ABA"/>
<path d="M321.25 195.125H340L343.75 195.75V240.125H337.5V239.5L341.25 238.25L340 233.875L341.875 228.25V203.25L340.625 198.875L337.5 197L326.875 196.375L321.25 195.75V195.125Z" fill="#0B76BA"/>
<path d="M779.375 122H823.75V183.875H823.125L822.5 127.625L820.625 123.875H780L778.75 130.75H778.125V122.625L779.375 122Z" fill="#0C7ABA"/>
<path d="M975.625 208.875H976.25L977.5 215.125V235.125L976.25 244.5L974.375 249.5L971.875 255.125L969.375 259.5L968.75 257L971.875 250.125L973.75 242L975 230.125L975.625 208.875Z" fill="#0B77BA"/>
<path d="M136.875 274.5H196.875V292H196.25L195.625 276.375L194.375 275.75H149.375L136.875 275.125V274.5Z" fill="#0B76BA"/>
<path d="M913.125 121.375H947.5L956.875 122.625L957.5 123.875L943.75 123.25H920L913.125 122.625V121.375Z" fill="#0B76BA"/>
<path d="M114.375 163.25H125L134.375 164.5L132.5 165.75H103.125V165.125L114.375 163.25Z" fill="#0B77BA"/>
<path d="M820.625 122.625H823.75V183.875H823.125L822.5 127.625L820.625 123.875V122.625Z" fill="#0B76BA"/>
<path d="M1185 212.625L1186.25 215.125V233.25L1185 238.875L1183.75 242H1183.12V236.375L1184.38 226.375L1185 212.625Z" fill="#0B78BA"/>
<path d="M731.25 236.375L733.75 239.5L735.625 242H737.5L743.75 249.5L744.375 251.375L743.125 252.625L741.25 251.375L739.375 250.75L733.125 240.75L731.25 238.25V236.375Z" fill="#0B77BA"/>
<path d="M724.375 308.25H725V319.5H710L708.75 318.25L723.75 317.625V310.125L724.375 308.25Z" fill="#0C79BA"/>
<path d="M455 235.75L457.5 238.875L458.125 240.125L459.375 238.875L463.125 245.125L462.5 247H461.875V248.25H460.625L455 237.625V235.75Z" fill="#0B77BA"/>
<path d="M195.625 294.5H196.25V318.25H190.625V317.625L194.375 317L195 314.5L194.375 310.125L195.625 294.5Z" fill="#0B76BA"/>
<path d="M1114.38 125.75L1116.88 126.375L1108.75 130.75L1100.62 136.375H1098.75L1099.38 134.5L1106.25 130.125L1114.38 125.75Z" fill="#0C79BA"/>
<path d="M571.25 53.875L571.875 55.125L569.375 62V70.75H568.125L567.5 68.25V62.625L568.75 57L570 54.5L571.25 53.875Z" fill="#0C79BA"/>
<path d="M1096.88 136.375L1098.12 137L1090.62 143.875L1085.62 148.875L1085 147L1091.25 140.75L1096.88 136.375Z" fill="#0C79BA"/>
<path d="M966.875 178.875L969.375 179.5V180.75H970.625L971.875 186.375L972.5 189.5H971.25L966.875 180.75V178.875Z" fill="#0B78BA"/>
<path d="M941.875 121.375H947.5L956.875 122.625L957.5 123.875L946.25 123.25V122H941.875V121.375Z" fill="#0C7BBA"/>
<path d="M1078.75 155.125L1080 155.75L1074.38 165.125L1073.75 162.625L1078.75 155.125Z" fill="#0C79BA"/>
<path d="M625 308.875L625.625 310.75L620.625 314.5H618.75L619.375 312.625L623.125 310.75L625 308.875Z" fill="#0C78BA"/>
<path d="M133.75 166.375H135L134.375 170.75L131.25 172.625L132.5 168.875L133.75 166.375Z" fill="#0C7ABA"/>
</svg>
